<svg width="24" height="24" viewBox="0 0 24 24" fill="none" xmlns="http://www.w3.org/2000/svg">
<path d="M22.0951 20.0429L17.9422 9.98362C17.8655 9.79785 17.7354 9.63903 17.5684 9.52728C17.4013 9.41552 17.2049 9.35587 17.0039 9.35587C16.8029 9.35587 16.6065 9.41552 16.4394 9.52728C16.2724 9.63903 16.1423 9.79785 16.0656 9.98362L11.9127 20.0429C11.8611 20.1662 11.8343 20.2986 11.834 20.4323C11.8336 20.566 11.8597 20.6985 11.9107 20.8221C11.9618 20.9457 12.0367 21.0581 12.1313 21.1526C12.2258 21.2472 12.3381 21.3222 12.4617 21.3732C12.5853 21.4242 12.7178 21.4503 12.8516 21.45C12.9853 21.4497 13.1176 21.4229 13.241 21.3713C13.3644 21.3197 13.4763 21.2442 13.5704 21.1492C13.6645 21.0541 13.7389 20.9415 13.7893 20.8176L14.6352 18.7693H19.3727L20.2185 20.8176C20.2952 21.0035 20.4253 21.1624 20.5924 21.2742C20.7595 21.386 20.956 21.4456 21.157 21.4456C21.3239 21.4455 21.4881 21.4043 21.6352 21.3256C21.7823 21.247 21.9077 21.1333 22.0004 20.9946C22.0931 20.8559 22.1502 20.6965 22.1666 20.5305C22.1831 20.3645 22.1584 20.197 22.0947 20.0429H22.0951ZM15.4736 16.739L17.0041 13.0314L18.5347 16.739H15.4736ZM12.3824 15.8586C12.5401 15.6407 12.605 15.3692 12.5627 15.1036C12.5204 14.838 12.3744 14.6001 12.1568 14.442C12.1476 14.4351 11.4646 13.9284 10.473 12.8394C12.3026 10.3625 13.339 7.54448 13.7617 6.21832H15.2507C15.5199 6.21832 15.7781 6.11137 15.9685 5.92099C16.1589 5.73061 16.2659 5.47241 16.2659 5.20317C16.2659 4.93394 16.1589 4.67573 15.9685 4.48535C15.7781 4.29497 15.5199 4.18802 15.2507 4.18802H9.89808V3.26515C9.89808 2.99592 9.79113 2.73771 9.60075 2.54733C9.41037 2.35695 9.15216 2.25 8.88293 2.25C8.61369 2.25 8.35548 2.35695 8.16511 2.54733C7.97473 2.73771 7.86777 2.99592 7.86777 3.26515V4.18802H2.51515C2.24592 4.18802 1.98771 4.29497 1.79733 4.48535C1.60695 4.67573 1.5 4.93394 1.5 5.20317C1.5 5.47241 1.60695 5.73061 1.79733 5.92099C1.98771 6.11137 2.24592 6.21832 2.51515 6.21832H11.6169C11.1776 7.46188 10.3687 9.42528 9.13487 11.2184C7.68551 9.29516 7.14702 8.05067 7.14286 8.04052C7.03676 7.79531 6.83826 7.60182 6.59042 7.50201C6.34258 7.4022 6.06538 7.40412 5.81895 7.50735C5.57252 7.61059 5.37672 7.80682 5.27402 8.05348C5.17133 8.30014 5.17001 8.57734 5.27037 8.82496C5.29713 8.88864 5.94175 10.4044 7.7095 12.6978C7.75196 12.7527 7.79395 12.8062 7.83594 12.8597C6.02527 14.9062 4.24876 16.1756 3.50539 16.5853C3.26901 16.7143 3.09353 16.9318 3.01755 17.1901C2.94158 17.4484 2.97132 17.7263 3.10025 17.9627C3.22918 18.1991 3.44672 18.3746 3.70503 18.4505C3.96334 18.5265 4.24125 18.4968 4.47763 18.3679C4.5773 18.3134 6.72019 17.1271 9.16717 14.4184C10.2063 15.5296 10.9206 16.0538 10.9635 16.0842C11.0715 16.1626 11.1939 16.219 11.3237 16.2501C11.4534 16.2812 11.5881 16.2864 11.7199 16.2654C11.8517 16.2444 11.978 16.1976 12.0917 16.1277C12.2054 16.0578 12.3042 15.9662 12.3824 15.8581V15.8586Z" fill="white"/>
</svg>
