<svg width="130" height="125" viewBox="0 0 130 125" fill="none" xmlns="http://www.w3.org/2000/svg">
<path d="M11.6289 41.1859V88.8946L58.1457 116.291V68.8052L11.6289 41.1859ZM65.8985 116.291L112.415 88.8946V41.1859L65.8985 68.8052V116.291ZM108.539 34.8867L62.0221 7.75195L15.5053 34.8867L62.0221 62.0215L108.539 34.8867Z" fill="#E4E4E4"/>
<circle cx="106.455" cy="46.4549" r="23.4549" fill="#263238"/>
<path d="M95.4491 41.9313L95.3709 52.254L105.391 58.258L105.469 47.9835L95.4491 41.9313ZM107.068 58.2707L117.178 52.4192L117.256 42.0965L107.146 47.9962L107.068 58.2707ZM116.428 40.7272L106.407 34.7799L96.2982 40.5747L106.318 46.5221L116.428 40.7272Z" fill="white"/>
</svg>
