<svg width="125" height="125" viewBox="0 0 125 125" fill="none" xmlns="http://www.w3.org/2000/svg">
<path d="M11.6289 41.1859V88.8946L58.1457 116.291V68.8052L11.6289 41.1859ZM65.8985 116.291L112.415 88.8946V41.1859L65.8985 68.8052V116.291ZM108.539 34.8867L62.0221 7.75195L15.5053 34.8867L62.0221 62.0215L108.539 34.8867Z" fill="#E4E4E4"/>
<circle cx="100.455" cy="48.4549" r="23.4549" fill="#263238"/>
<path d="M112.195 47.9948C112.082 47.6784 111.814 47.4912 111.532 47.3646L109.781 46.6743L109.781 39.8516C109.781 39.5718 109.67 39.3036 109.472 39.1058C109.274 38.908 109.006 38.7969 108.726 38.7969L104.719 38.7969L104.719 37.1094C104.719 36.8856 104.63 36.671 104.472 36.5128C104.313 36.3545 104.099 36.2656 103.875 36.2656L97.1249 36.2656C96.9011 36.2656 96.6865 36.3545 96.5283 36.5128C96.3701 36.671 96.2812 36.8856 96.2812 37.1094L96.2812 38.7969L92.2734 38.7969C91.9936 38.7969 91.7254 38.908 91.5276 39.1058C91.3298 39.3036 91.2187 39.5718 91.2187 39.8516L91.2187 46.6786L89.4742 47.3673C89.1931 47.4938 88.9163 47.6837 88.8034 48.0001C88.6906 48.3165 88.6368 48.6229 88.7507 49.002L91.4428 56.9217L91.4987 56.9217C93.298 56.9217 94.8737 56.0036 95.9975 54.6109C97.1217 56.0036 98.6964 56.832 100.496 56.832C102.295 56.832 103.871 56.0009 104.994 54.6082C106.119 56.0009 107.693 56.9217 109.493 56.9217L109.549 56.9217L112.251 49.0026C112.365 48.6862 112.308 48.3117 112.195 47.9948ZM100.5 43.0156L92.9062 46.0125L92.9062 40.6953C92.9062 40.6394 92.9284 40.5857 92.9679 40.5462C93.0075 40.5066 93.0612 40.4844 93.1171 40.4844L107.883 40.4844C107.939 40.4844 107.992 40.5066 108.032 40.5462C108.071 40.5857 108.094 40.6394 108.094 40.6953L108.094 46.0088L100.5 43.0156Z" fill="white"/>
<path d="M105.204 56.4629C102.449 58.375 98.5411 58.3745 95.7857 56.4629C95.7857 56.4629 93.3789 59.7852 90.7949 59.7852L91.4979 59.8379C93.0725 59.8379 94.5907 59.2193 95.9966 58.4884C97.3866 59.209 98.9293 59.5851 100.495 59.5851C102.06 59.5851 103.603 59.209 104.993 58.4884C106.399 59.2198 107.917 59.8384 109.492 59.8384L110.195 59.7857C107.682 59.7852 105.204 56.4629 105.204 56.4629Z" fill="white"/>
</svg>
