<svg width="135" height="134" viewBox="0 0 135 134" fill="none" xmlns="http://www.w3.org/2000/svg">
<path d="M13.1426 44.7321V95.7204L62.8569 125V74.25L13.1426 44.7321ZM71.1426 125L120.857 95.7204V44.7321L71.1426 74.25V125ZM116.714 38L66.9997 9L17.2854 38L66.9997 67L116.714 38Z" fill="#E4E4E4"/>
<circle cx="111.455" cy="52.4549" r="23.4549" fill="#263238"/>
<path d="M120.948 59.7519L120.954 59.7592C121.219 60.0554 121.361 60.4417 121.349 60.8388C121.338 61.2359 121.176 61.6137 120.895 61.8946C120.614 62.1756 120.236 62.3383 119.839 62.3494C119.442 62.3605 119.055 62.2192 118.759 61.9544L118.752 61.9479L118.745 61.941L114.422 57.6181C112.957 58.6407 111.211 59.1904 109.419 59.1884M120.948 59.7519L118.188 50.4192H117.838L118.188 50.4188C118.188 45.5834 114.255 41.65 109.419 41.65C104.584 41.65 100.65 45.5836 100.65 50.4192C100.65 55.2547 104.583 59.1882 109.419 59.1884M120.948 59.7519L120.941 59.745M120.948 59.7519L120.941 59.745M109.419 59.1884L109.419 58.8384V59.1884C109.419 59.1884 109.419 59.1884 109.419 59.1884ZM120.941 59.745L116.618 55.4221L120.941 59.745ZM103.755 50.419C103.756 49.2989 104.088 48.2039 104.71 47.2726C105.332 46.3412 106.217 45.6153 107.252 45.1866C108.287 44.7579 109.425 44.6458 110.524 44.8643C111.623 45.0828 112.632 45.6223 113.424 46.4143C114.216 47.2064 114.756 48.2156 114.974 49.3143C115.193 50.4129 115.08 51.5517 114.652 52.5866C114.223 53.6215 113.497 54.5061 112.566 55.1284C111.634 55.7507 110.539 56.0829 109.419 56.0829C107.918 56.081 106.478 55.4837 105.416 54.4219C104.355 53.3601 103.757 51.9206 103.755 50.419Z" fill="white" stroke="white" stroke-width="0.7"/>
</svg>
