<svg width="136" height="134" viewBox="0 0 136 134" fill="none" xmlns="http://www.w3.org/2000/svg">
<path d="M13.1426 44.7321V95.7204L62.8569 125V74.25L13.1426 44.7321ZM71.1426 125L120.857 95.7204V44.7321L71.1426 74.25V125ZM116.714 38L66.9997 9L17.2854 38L66.9997 67L116.714 38Z" fill="#E4E4E4"/>
<circle cx="111.873" cy="52.7245" r="23.4549" fill="#263238"/>
<path d="M123.796 62.2787L118.969 50.5469C118.879 50.3302 118.728 50.145 118.534 50.0147C118.34 49.8843 118.112 49.8148 117.878 49.8148C117.644 49.8148 117.416 49.8843 117.222 50.0147C117.028 50.145 116.876 50.3302 116.787 50.5469L111.96 62.2787C111.9 62.4226 111.869 62.577 111.869 62.7329C111.868 62.8889 111.899 63.0434 111.958 63.1876C112.017 63.3318 112.104 63.4628 112.214 63.5731C112.324 63.6833 112.455 63.7708 112.598 63.8303C112.742 63.8898 112.896 63.9202 113.052 63.9199C113.207 63.9195 113.361 63.8883 113.504 63.8281C113.648 63.7679 113.778 63.6798 113.887 63.569C113.997 63.4582 114.083 63.3268 114.142 63.1823L115.125 60.7934H120.631L121.614 63.1823C121.703 63.3991 121.855 63.5844 122.049 63.7148C122.243 63.8452 122.472 63.9148 122.705 63.9147C122.899 63.9146 123.09 63.8666 123.261 63.7748C123.432 63.6831 123.578 63.5505 123.685 63.3887C123.793 63.227 123.86 63.0411 123.879 62.8475C123.898 62.6539 123.869 62.4586 123.795 62.2787H123.796ZM116.099 58.4255L117.878 54.1014L119.657 58.4255H116.099ZM112.506 57.3987C112.69 57.1447 112.765 56.828 112.716 56.5182C112.667 56.2085 112.497 55.9309 112.244 55.7466C112.233 55.7385 111.44 55.1476 110.287 53.8775C112.414 50.9887 113.618 47.7022 114.109 46.1555H115.84C116.153 46.1555 116.453 46.0308 116.674 45.8087C116.896 45.5867 117.02 45.2856 117.02 44.9716C117.02 44.6576 116.896 44.3564 116.674 44.1344C116.453 43.9123 116.153 43.7876 115.84 43.7876H109.619V42.7113C109.619 42.3973 109.494 42.0961 109.273 41.8741C109.052 41.6521 108.752 41.5273 108.439 41.5273C108.126 41.5273 107.826 41.6521 107.604 41.8741C107.383 42.0961 107.259 42.3973 107.259 42.7113V43.7876H101.037C100.724 43.7876 100.424 43.9123 100.203 44.1344C99.9817 44.3564 99.8574 44.6576 99.8574 44.9716C99.8574 45.2856 99.9817 45.5867 100.203 45.8087C100.424 46.0308 100.724 46.1555 101.037 46.1555H111.617C111.106 47.6058 110.166 49.8957 108.732 51.987C107.047 49.744 106.421 48.2925 106.416 48.2807C106.293 47.9947 106.062 47.769 105.774 47.6526C105.486 47.5362 105.164 47.5385 104.877 47.6589C104.591 47.7793 104.363 48.0081 104.244 48.2958C104.125 48.5835 104.123 48.9068 104.24 49.1956C104.271 49.2698 105.02 51.0377 107.075 53.7123C107.124 53.7764 107.173 53.8388 107.222 53.9012C105.117 56.288 103.052 57.7684 102.188 58.2463C101.914 58.3967 101.71 58.6504 101.621 58.9517C101.533 59.2529 101.568 59.577 101.717 59.8527C101.867 60.1284 102.12 60.3331 102.42 60.4217C102.721 60.5103 103.044 60.4756 103.318 60.3252C103.434 60.2617 105.925 58.8781 108.769 55.7191C109.977 57.015 110.807 57.6264 110.857 57.6619C110.983 57.7533 111.125 57.8191 111.276 57.8553C111.427 57.8916 111.583 57.8976 111.736 57.8732C111.889 57.8487 112.036 57.7941 112.168 57.7126C112.301 57.6311 112.415 57.5243 112.506 57.3982V57.3987Z" fill="white"/>
</svg>
