<svg width="209" height="211" viewBox="0 0 209 211" fill="none" xmlns="http://www.w3.org/2000/svg">
<circle cx="104.174" cy="110.789" r="99.2126" fill="#E4E4E4"/>
<circle cx="104.174" cy="110.789" r="99.2126" stroke="white"/>
<path d="M104.441 0C46.853 0 0 47.1036 0 105C0 162.896 46.853 210 104.441 210C162.03 210 208.883 162.896 208.883 105C208.883 47.1036 162.03 0 104.441 0ZM105.446 48.4615C112.596 48.4615 119.586 50.5932 125.531 54.587C131.476 58.5807 136.11 64.2572 138.847 70.8986C141.583 77.54 142.299 84.848 140.904 91.8985C139.509 98.9489 136.066 105.425 131.01 110.508C125.954 115.591 119.512 119.053 112.499 120.455C105.486 121.858 98.2167 121.138 91.6106 118.387C85.0046 115.636 79.3583 110.978 75.3857 105.001C71.4132 99.0235 69.2929 91.9963 69.2929 84.8077C69.2929 75.1681 73.1018 65.9233 79.8818 59.1071C86.6618 52.2909 95.8574 48.4615 105.446 48.4615V48.4615ZM104.441 193.846C92.2522 193.851 80.1944 191.315 69.0298 186.397C57.8652 181.479 47.8365 174.286 39.5773 165.274C44.0161 142.164 83.8846 137.308 104.441 137.308C124.998 137.308 164.867 142.164 169.306 165.269C161.047 174.283 151.019 181.477 139.854 186.396C128.69 191.315 116.631 193.852 104.441 193.846V193.846Z" fill="white"/>
</svg>
